 http://img.perezhilton.com/wp-content/uploads/2012/06/struck-by-lightning__oPt.jpg



File size : 1.23 GiB
Duration : 1h 24mn
Overall bit rate mode : Variable
Overall bit rate : 2 092 Kbps
Writing application : BandiAviMuxer 1.0


Video
ID : 0
Format : MPEG Video
Format version : Version 1
Format settings, BVOP : No
Format settings, Matrix : Default
Codec ID : MPEG
Codec ID/Info : Chromatic MPEG 1 Video I Frame
Duration : 1h 24mn
Bit rate mode : Variable
Bit rate : 1 883 Kbps
Width : 1 008 pixels
Height : 564 pixels
Display aspect ratio : 16:9
Frame rate : 30.000 fps
Color space : YUV
Chroma subsampling : 4:2:0
Bit depth : 8 bits
Scan type : Progressive
Compression mode : Lossy
Bits/(Pixel*Frame) : 0.110
Stream size : 1.11 GiB (90%)


Audio
ID : 1
Format : MPEG Audio
Format version : Version 1
Format profile : Layer 2
Codec ID : 50
Duration : 1h 24mn
Bit rate mode : Constant
Bit rate : 192 Kbps
Channel(s) : 2 channels
Sampling rate : 48.0 KHz
Compression mode : Lossy
Stream size : 115 MiB (9%)
Alignment : Aligned on interleaves
Interleave, duration : 24 ms (0.72 video frame)


IMDB URL http://www.imdb.com/title/tt1791614/




After being struck and killed by lightning, a young man recounts the way he blackmailed his fellow classmates into contributing to his literary magazine.


 
http://www.shotpix.com/images/50175787997775994735.png 
http://www.shotpix.com/images/49399603606445720601.png 
http://www.shotpix.com/images/09194190081870253892.png